<mxfile host="app.diagrams.net" modified="2024-01-24T01:07:54.028Z" agent="Mozilla/5.0 (Windows NT 10.0; Win64; x64) AppleWebKit/537.36 (KHTML, like Gecko) Chrome/120.0.0.0 Safari/537.36" version="23.0.0" etag="HCRsm5ec2dNUuXxN-myy" type="github">
  <diagram name="Halaman-1" id="Cq5LC0TPIV8pmdwwI8M8">
    <mxGraphModel>
      <root>
        <mxCell id="0" />
        <mxCell id="1" parent="0" />
      </root>
    </mxGraphModel>
  </diagram>
</mxfile>
